<svg fill="#000000" xmlns="http://www.w3.org/2000/svg" viewBox="0 0 16 16" width="16px" height="16px"><path d="M 4.773438 1 C 2.695313 1 1 2.695313 1 4.773438 C 1 5.335938 1.171875 5.851563 1.394531 6.332031 C 1.324219 6.710938 1.273438 7.097656 1.273438 7.5 C 1.273438 10.933594 4.066406 13.726563 7.5 13.726563 C 7.902344 13.726563 8.292969 13.679688 8.675781 13.605469 C 9.15625 13.824219 9.667969 14 10.230469 14 C 12.304688 14 14 12.304688 14 10.226563 C 14.003906 10.226563 14.003906 10.226563 14 10.222656 C 14 9.664063 13.828125 9.148438 13.609375 8.667969 C 13.679688 8.289063 13.730469 7.902344 13.730469 7.5 C 13.730469 4.066406 10.933594 1.273438 7.5 1.273438 C 7.101563 1.273438 6.710938 1.320313 6.328125 1.394531 C 5.847656 1.171875 5.332031 1 4.773438 1 Z M 4.773438 2 C 5.253906 2 5.699219 2.121094 6.09375 2.335938 C 6.195313 2.390625 6.316406 2.40625 6.429688 2.382813 C 6.777344 2.3125 7.136719 2.273438 7.5 2.273438 C 10.394531 2.273438 12.730469 4.605469 12.730469 7.5 C 12.730469 7.867188 12.6875 8.222656 12.617188 8.570313 C 12.59375 8.683594 12.609375 8.804688 12.667969 8.910156 C 12.878906 9.300781 13 9.75 13 10.226563 C 13 11.765625 11.765625 13 10.230469 13 C 9.75 13 9.300781 12.878906 8.910156 12.667969 C 8.804688 12.609375 8.683594 12.59375 8.570313 12.617188 C 8.222656 12.6875 7.867188 12.726563 7.5 12.726563 C 4.605469 12.726563 2.273438 10.394531 2.273438 7.5 C 2.273438 7.132813 2.3125 6.777344 2.382813 6.429688 C 2.40625 6.316406 2.386719 6.195313 2.332031 6.09375 C 2.121094 5.699219 2 5.253906 2 4.773438 C 2 3.234375 3.234375 2 4.773438 2 Z M 7.46875 4 C 6.152344 4 4.757813 4.558594 4.757813 6.042969 C 4.757813 6.757813 5.011719 7.519531 6.417969 7.871094 L 8.164063 8.304688 C 8.691406 8.4375 8.824219 8.734375 8.824219 9.003906 C 8.824219 9.449219 8.382813 9.886719 7.578125 9.886719 C 6.007813 9.886719 6.226563 8.679688 5.386719 8.679688 C 5.007813 8.679688 4.734375 8.941406 4.734375 9.3125 C 4.734375 10.035156 5.613281 11 7.578125 11 C 9.445313 11 10.375 10.097656 10.375 8.890625 C 10.375 8.113281 10.015625 7.285156 8.597656 6.96875 L 7.304688 6.683594 C 6.8125 6.570313 6.246094 6.425781 6.246094 5.960938 C 6.246094 5.496094 6.644531 5.171875 7.359375 5.171875 C 8.804688 5.171875 8.675781 6.164063 9.390625 6.164063 C 9.769531 6.164063 10.097656 5.941406 10.097656 5.558594 C 10.097656 4.667969 8.675781 4 7.46875 4 Z"/></svg>
